<svg width="45" height="37" viewBox="0 0 45 37" fill="none" xmlns="http://www.w3.org/2000/svg">
<rect width="45" height="37" fill="#8E8E8E"/>
<path fill-rule="evenodd" clip-rule="evenodd" d="M15.9409 7.00758C15.8506 7.08653 15.2291 7.91886 14.5595 8.85732C13.3519 10.5501 13.3423 10.5661 13.3423 10.8908C13.3423 11.1598 13.374 11.2612 13.5201 11.4598C13.6179 11.5926 15.0573 12.7797 16.7187 14.0977L19.7395 16.494L18.5652 17.3126L17.3909 18.1313L15.148 16.5703C13.4486 15.3876 12.8563 15.0094 12.7038 15.0094C12.5185 15.0094 12.4435 15.0907 11.7698 16.0211C11.1204 16.9181 11.0339 17.0676 11.0078 17.3386C10.9795 17.6326 11.0177 17.7264 12.0187 19.8196L13.0591 21.995L12.539 22.442C11.8896 23 11.3615 23.6004 11.1747 23.9931C10.9938 24.3736 10.9473 24.8755 11.0639 25.1892C11.3773 26.0326 12.2298 26.2918 14.7373 26.3061C16.1473 26.3141 16.317 26.3007 16.8709 26.1373C19.0206 25.503 22.1864 24.1898 25.218 22.6746L25.9062 22.3307L28.4139 26.5915C29.793 28.935 30.9932 30.9362 31.0807 31.0388C31.1693 31.1424 31.3101 31.2252 31.3979 31.2252C31.4904 31.2252 32.0982 30.8477 32.8635 30.315C34.0641 29.4792 34.1787 29.3822 34.2653 29.1283L34.3596 28.8519L33.4566 23.8529C32.9599 21.1035 32.5395 18.7855 32.5223 18.7018C32.4954 18.5701 32.5773 18.493 33.1299 18.1308C34.1498 17.4621 35.7902 16.1923 36.6202 15.4289C38.1868 13.9882 39 12.7139 39 11.6998C39 11.2598 38.7925 10.621 38.5171 10.213C37.8461 9.21887 36.6467 8.69615 34.6742 8.53826C32.4212 8.35791 30.0897 8.99474 27.2559 10.5646L26.3712 11.0548L21.3524 8.95911C18.5921 7.80649 16.2822 6.86362 16.2193 6.86377C16.1565 6.86392 16.0312 6.92863 15.9409 7.00758ZM21.4246 10.6864C24.1699 11.8288 26.4164 12.7844 26.4167 12.8098C26.4173 12.8574 22.1296 16.4559 22.0721 16.4559C22.0413 16.4559 15.2631 11.0851 14.9901 10.8445L14.86 10.7298L15.6185 9.67207C16.0358 9.09043 16.3897 8.61325 16.4052 8.6118C16.4206 8.61028 18.6794 9.54387 21.4246 10.6864ZM33.992 10.5113C33.2584 11.1419 33.0735 11.5017 33.2258 12.0023C33.4126 12.6158 33.7987 12.6945 34.2531 12.2115C34.9216 11.5009 35.7034 11.114 36.7524 10.9747C37.2586 10.9074 37.2837 10.9115 37.4803 11.0918C37.5923 11.1944 37.7218 11.3801 37.7679 11.5043C37.8437 11.7083 37.8433 11.7599 37.7639 12.0359C37.2943 13.6695 32.1152 17.3779 25.4053 20.8852C21.2801 23.0413 17.9 24.4163 16.0777 24.6792C15.5192 24.7598 12.8952 24.6579 12.6108 24.5445C12.457 24.4833 12.4647 24.472 12.9664 24.0177C13.2484 23.7624 13.6445 23.4273 13.8467 23.2731C14.0488 23.1188 14.2791 22.8854 14.3584 22.7542C14.608 22.3416 14.5607 22.1944 13.4034 19.7809C12.8282 18.5813 12.3576 17.5723 12.3576 17.5386C12.3576 17.5049 12.4687 17.3255 12.6045 17.1401L12.8514 16.8028L15.0253 18.3015C16.221 19.1259 17.2588 19.8228 17.3317 19.8503C17.4347 19.8892 17.8523 19.6315 19.2083 18.692L20.9525 17.4837L21.4359 17.8453C21.7244 18.0611 21.9898 18.2069 22.0943 18.2069C22.2265 18.2069 22.9862 17.61 25.205 15.763C26.8615 14.3839 28.2209 13.2025 28.3248 13.0517C28.4875 12.8157 28.5056 12.749 28.4797 12.4811C28.4637 12.3142 28.395 12.0955 28.3272 11.9951C28.2594 11.8947 28.2144 11.8013 28.227 11.7875C28.2711 11.7394 29.2389 11.2871 29.7818 11.0608C31.2141 10.4638 32.5261 10.1539 33.6637 10.1439L34.4273 10.1371L33.992 10.5113ZM32.2368 23.7259C32.6769 26.1751 33.0369 28.2227 33.0369 28.276C33.0369 28.3293 32.7065 28.6021 32.3026 28.8822L31.5683 29.3915L29.3894 25.6885C28.1911 23.6518 27.1798 21.9261 27.1423 21.8536C27.0806 21.7343 27.1382 21.6871 27.7441 21.3611C28.7347 20.8283 30.4699 19.834 30.9201 19.5412C31.1365 19.4004 31.3413 19.2824 31.3752 19.279C31.4118 19.2752 31.7603 21.0737 32.2368 23.7259Z" fill="white"/>
</svg>
