<svg width="11" height="8" viewBox="0 0 11 8" fill="none" xmlns="http://www.w3.org/2000/svg">
<g clip-path="url(#clip0_31_26)">
<path d="M2.39614 1.55838L6.10727 5.39277C6.49137 5.78962 6.49137 6.43304 6.10727 6.82989L5.79751 7.14994C5.41342 7.54679 4.79068 7.54679 4.40659 7.14994L0.695456 3.31555C0.311363 2.9187 0.311363 2.27527 0.695456 1.87842L1.00522 1.55838C1.38931 1.16152 2.01205 1.16152 2.39614 1.55838Z" fill="#CF2144"/>
<path d="M8.18003 1.55838L4.4689 5.39277C4.08481 5.78962 4.08481 6.43304 4.4689 6.82989L4.77866 7.14994C5.16275 7.54679 5.78549 7.54679 6.16959 7.14994L9.88072 3.31555C10.2648 2.9187 10.2648 2.27527 9.88072 1.87842L9.57096 1.55838C9.18686 1.16152 8.56412 1.16152 8.18003 1.55838Z" fill="#CF2144"/>
</g>
<defs>
<clipPath id="clip0_31_26">
<rect width="11" height="8" fill="white"/>
</clipPath>
</defs>
</svg>
