<svg width="16" height="17" viewBox="0 0 16 17" fill="none" xmlns="http://www.w3.org/2000/svg">
<path fill-rule="evenodd" clip-rule="evenodd" d="M3.73375 14.1829H12.7259C12.9884 14.1829 13.4221 13.527 13.5901 13.302L14.0328 12.6191C14.2942 12.1577 14.5502 11.6631 14.7691 11.152L14.9972 10.6186V15.2741H3.73375V14.1829ZM1.55572 13.0918C1.62153 12.9465 1.69611 12.8559 1.77345 12.728C2.19134 12.0372 2.46008 11.4637 2.75857 10.6789C3.31518 9.21567 3.73375 7.10135 3.73375 5.45385H14.9661C14.9661 7.78465 14.2698 10.3009 13.1613 12.1459C12.9903 12.4305 12.8024 12.6843 12.5941 12.9379C12.4183 13.152 12.436 13.093 12.1036 13.0919L1.55572 13.0918ZM3.73375 2.18044H5.63175V2.79877C5.63175 3.4267 6.56518 3.4267 6.56518 2.79877V2.18044H8.89878V2.79877C8.89878 3.4267 9.83222 3.4267 9.83222 2.79877V2.18044H12.1969V2.79877C12.1969 3.4267 13.1304 3.4267 13.1304 2.79877V2.18044H14.9972V4.36272H3.73375V2.18044ZM5.63175 0.470985V1.08931H3.20479C2.66174 1.08931 2.80031 2.10058 2.80031 2.61688C2.80031 5.7133 2.87965 7.33119 1.90282 10.1877C1.77023 10.5755 1.63867 10.849 1.47273 11.2126C1.27936 11.6363 0.884112 12.3757 0.583542 12.7192L0.37776 12.9878C0.0972212 13.2851 0 13.2665 0 13.7101C0 13.9332 0.213686 14.1829 0.40448 14.1829H2.80031V15.8924C2.80031 16.1154 3.014 16.3652 3.20479 16.3652H15.5262C15.717 16.3652 15.9307 16.1154 15.9307 15.8924V1.56212C15.9307 1.33909 15.717 1.08931 15.5262 1.08931H13.1304V0.470985C13.1304 -0.156995 12.1969 -0.156995 12.1969 0.470985V1.08931H9.83222V0.470985C9.83222 -0.156995 8.89878 -0.156995 8.89878 0.470985V1.08931H6.56518V0.470985C6.56518 -0.156995 5.63175 -0.156995 5.63175 0.470985Z" fill="#DA1C1C"/>
</svg>
