<svg width="22" height="22" viewBox="0 0 22 22" fill="none" xmlns="http://www.w3.org/2000/svg">
<path fill-rule="evenodd" clip-rule="evenodd" d="M2.74985 9.39124C2.74985 11.1467 3.367 12.4332 4.36393 13.6859L5.22352 14.5243C5.39878 14.6571 5.53374 14.764 5.7081 14.8899C6.3996 15.388 7.25292 15.7067 8.09489 15.915L9.62507 16.1018C9.8293 16.1018 9.81855 16.0662 10.0117 16.0572C12.0889 15.9587 14.1055 14.8986 15.2541 13.2064C16.9052 10.7736 16.9052 8.00864 15.2541 5.57584C14.8558 4.98913 14.1365 4.28734 13.5352 3.89872C12.4612 3.2048 11.3374 2.7585 10.0105 2.72616C9.79944 2.72092 9.80631 2.68275 9.62507 2.68275C9.44354 2.68275 9.45041 2.72092 9.23932 2.72616C8.40959 2.74655 7.53208 2.95222 6.80297 3.28375C5.93681 3.6779 4.94466 4.36716 4.36393 5.09662C4.22778 5.26763 4.11821 5.3993 3.98922 5.56943C3.25205 6.54389 2.74985 8.04885 2.74985 9.39124ZM19.2498 9.22344C19.2498 10.6521 19.085 11.4587 18.6649 12.6357C18.1571 14.0582 17.7155 14.3521 17.3593 15.009L21.0225 18.6042C21.6193 19.1865 22 19.3622 22 20.2496C22 20.8316 21.3503 21.4655 20.7538 21.4655C19.9485 21.4655 19.7276 21.2001 19.0459 20.5327L15.3397 16.9795C15.1854 17.0197 12.9888 18.7822 9.88274 18.7822C8.25194 18.7822 6.85283 18.5459 5.60002 17.9298C4.19673 17.2397 3.95817 17.0366 2.82479 16.068L2.02522 15.171C1.93415 15.0516 1.85802 14.9586 1.77023 14.8331C0.747326 13.3709 0 11.6219 0 9.6846C0 8.04156 0.218853 6.73471 0.887954 5.4363C1.15249 4.923 1.17936 4.83269 1.49555 4.35201L2.8027 2.73461L4.40723 1.49126C6.2324 0.404933 7.65898 0 9.88274 0C11.2003 0 12.7911 0.429404 13.6785 0.866091C14.6026 1.32055 15.0594 1.5804 15.8258 2.20907C16.0733 2.41212 16.2214 2.55807 16.4463 2.77743C18.1553 4.44523 19.2498 6.75393 19.2498 9.22344Z" fill="#D62329"/>
</svg>
