<svg width="14" height="14" viewBox="0 0 14 14" fill="none" xmlns="http://www.w3.org/2000/svg">
<path d="M13.9057 6.55619C13.8502 6.41298 13.7669 6.28215 13.6607 6.17119L7.82736 0.337858C7.71858 0.22908 7.58944 0.142792 7.44732 0.0839219C7.30519 0.0250515 7.15286 -0.00524902 6.99902 -0.00524902C6.68834 -0.00524902 6.39038 0.11817 6.17069 0.337858C6.06191 0.446636 5.97562 0.575775 5.91675 0.717901C5.85788 0.860026 5.82758 1.01236 5.82758 1.16619C5.82758 1.47688 5.951 1.77484 6.17069 1.99452L10.0207 5.83286H1.16569C0.856271 5.83286 0.559525 5.95577 0.340732 6.17457C0.12194 6.39336 -0.000976562 6.69011 -0.000976562 6.99952C-0.000976562 7.30894 0.12194 7.60569 0.340732 7.82448C0.559525 8.04327 0.856271 8.16619 1.16569 8.16619H10.0207L6.17069 12.0045C6.06134 12.113 5.97455 12.242 5.91532 12.3842C5.85609 12.5264 5.82559 12.6788 5.82559 12.8329C5.82559 12.9869 5.85609 13.1394 5.91532 13.2815C5.97455 13.4237 6.06134 13.5527 6.17069 13.6612C6.27915 13.7705 6.40818 13.8573 6.55035 13.9166C6.69252 13.9758 6.84501 14.0063 6.99902 14.0063C7.15304 14.0063 7.30553 13.9758 7.4477 13.9166C7.58987 13.8573 7.7189 13.7705 7.82736 13.6612L13.6607 7.82786C13.7669 7.7169 13.8502 7.58607 13.9057 7.44286C14.0224 7.15882 14.0224 6.84023 13.9057 6.55619Z" fill="white"/>
</svg>
