<svg width="31" height="29" viewBox="0 0 31 29" fill="none" xmlns="http://www.w3.org/2000/svg">
<path fill-rule="evenodd" clip-rule="evenodd" d="M30.6325 14.0666C30.6325 9.09281 27.5253 4.42484 23.1574 1.95735C21.2329 0.870046 18.619 0 16.0131 0C16.0131 2.10152 16.0917 4.55791 16.4724 6.57357C16.8716 8.68618 17.6146 10.2428 18.791 11.3876C21.3356 13.8633 26.1434 14.0666 30.6325 14.0666Z" fill="white"/>
<path fill-rule="evenodd" clip-rule="evenodd" d="M0.476563 14.0641C2.60764 14.0953 5.27581 13.97 7.30956 13.626C11.6545 12.8914 13.8298 10.7811 14.6355 6.6228C15.0099 4.68948 15.1329 2.03448 15.1006 0C12.9286 0 10.696 0.653963 9.18782 1.32658C6.43054 2.5562 4.05223 4.68192 2.51154 7.18855C1.82698 8.30241 1.24254 9.67385 0.913191 10.9398C0.677492 11.8461 0.476563 12.9719 0.476563 14.0641Z" fill="white"/>
<path fill-rule="evenodd" clip-rule="evenodd" d="M16.0131 29.0003C18.1001 29.0003 20.5151 28.3509 21.9216 27.674C22.9701 27.1695 23.8584 26.6934 24.7538 26.0193L26.2446 24.7803L27.4804 23.41C29.2749 21.2912 30.6325 17.9306 30.6325 14.9409C28.4363 14.9409 25.8399 15.0189 23.7578 15.3887C21.5025 15.7893 20.0275 16.4385 18.7986 17.6198C16.0681 20.245 16.0131 25.1998 16.0131 29.0003Z" fill="white"/>
<path fill-rule="evenodd" clip-rule="evenodd" d="M15.1032 29.0002C15.1032 26.882 15.0207 24.3907 14.6362 22.3813C13.8352 18.1967 11.6703 16.1288 7.30467 15.3802C5.27196 15.0317 2.59069 14.9069 0.476562 14.9437C0.476562 17.0261 1.1585 19.1763 1.85581 20.6225L3.20816 22.8477C3.72219 23.5719 4.2619 24.1395 4.89631 24.7496C5.88524 25.7005 6.74486 26.361 7.95166 27.0428C9.88898 28.1374 12.4745 29.0002 15.1032 29.0002Z" fill="white"/>
</svg>
