<svg width="56" height="56" viewBox="0 0 56 56" fill="none" xmlns="http://www.w3.org/2000/svg">
<path d="M42.4386 13.5623V28L27.9999 42.4377H13.5602V13.5623H42.4386Z" fill="#E52A2E"/>
<path d="M42.4386 13.5623V55.0568C42.4386 56.0596 41.8608 56.3006 41.1542 55.5939L29.2826 43.7218L27.9999 42.4377L13.5602 28V13.5623H42.4386Z" fill="#622925"/>
<path d="M42.4386 13.5623V28H13.5602L27.9999 13.5623H42.4386Z" fill="#972826"/>
<path d="M42.4386 27.9988H27.9999V42.4361L42.4386 27.9988Z" fill="#D12829"/>
<path d="M27.9999 28H42.4386V13.5623L27.9999 28Z" fill="#E52A2E"/>
<path d="M13.5602 28V42.4377H27.9999L13.5602 28Z" fill="#D12829"/>
<path d="M27.9999 13.5623V28H42.4386L27.9999 13.5623Z" fill="#D12829"/>
<path d="M26.7194 12.2802C26.7171 12.2786 26.7161 12.2754 26.7138 12.2744L14.847 0.407123C14.1394 -0.300379 13.5612 -0.0599883 13.5612 0.940711V6.22204H13.5601V13.5622H15.3801H26.1804H27.9999L26.7194 12.2802Z" fill="#E32A2F"/>
<path d="M27.9999 42.4375L26.7162 43.7216L15.7341 54.7034L14.8441 55.5937C14.1381 56.3004 13.5602 56.0594 13.5602 55.0566V42.4375H27.9999Z" fill="#E52A2E"/>
<path d="M42.4386 0.942752V13.5622H27.9999L29.2825 12.2778L39.6949 1.8657L41.1542 0.404852C41.8607 -0.301144 42.4386 -0.0599762 42.4386 0.942752Z" fill="#D12829"/>
<path d="M55.5936 41.1527L50.9675 36.5296V36.5284L46.7048 32.2637L43.7262 29.2851C43.7241 29.2851 43.7241 29.2846 43.7227 29.2836L42.4387 28L42.4398 42.4377H44.2568H44.2579H55.061C56.0616 42.4377 56.3005 41.8608 55.5936 41.1527Z" fill="#E52A2E"/>
<path d="M13.5602 28V42.4377H0.942208C-0.0603621 42.4377 -0.301133 41.8611 0.405433 41.1548L3.23706 38.3322L5.03282 36.5263L9.29391 32.2671L12.2769 29.2836L13.5602 28Z" fill="#E52A2E"/>
<path d="M55.5936 14.8447L53.6361 16.802L50.9661 19.4739L46.7054 23.7319L43.7219 26.716L42.4387 28V13.5623H55.0563C56.0594 13.5623 56.2993 14.138 55.5936 14.8447Z" fill="#D12829"/>
<path d="M13.5602 13.5623V28L12.2769 26.716L9.29391 23.7319L5.03282 19.4739L3.05965 17.4998L3.05193 17.4922L0.405433 14.8447C-0.301133 14.138 -0.0603621 13.5623 0.942208 13.5623H13.5602Z" fill="#E52A2E"/>
<path d="M27.9887 23.2552C27.0728 23.2552 26.6703 22.8718 26.6703 22.1072C26.6703 21.3816 27.0728 20.9802 27.9887 20.9802C28.9058 20.9802 29.3265 21.4389 29.3265 22.1072C29.3265 22.7748 28.9058 23.2552 27.9887 23.2552ZM29.2495 26.4997V34.2352C29.2495 34.3697 29.3077 34.4256 29.4222 34.4455L30.6251 34.5606V35.4199H25.3738V34.5606L26.595 34.4639C26.6703 34.4639 26.7677 34.4075 26.7677 34.2543V27.5887C26.7677 27.5116 26.7088 27.4547 26.6147 27.4547L25.3738 27.3597V26.4997H29.2495Z" fill="#FEFEFE"/>
</svg>
