<svg width="24" height="23" viewBox="0 0 24 23" fill="none" xmlns="http://www.w3.org/2000/svg">
<path d="M11.5914 0C6.96183 0 3.19543 3.73669 3.19543 8.32968C3.19543 14.0297 10.709 22.3977 11.0289 22.7512C11.3294 23.0832 11.854 23.0826 12.1539 22.7512C12.4738 22.3977 19.9873 14.0297 19.9873 8.32968C19.9872 3.73669 16.2209 0 11.5914 0ZM11.5914 12.5206C9.26214 12.5206 7.36722 10.6406 7.36722 8.32968C7.36722 6.01881 9.26219 4.13883 11.5914 4.13883C13.9206 4.13883 15.8155 6.01886 15.8155 8.32973C15.8155 10.6406 13.9206 12.5206 11.5914 12.5206Z" fill="#FF0000"/>
</svg>
