<svg width="30" height="28" viewBox="0 0 30 28" fill="none" xmlns="http://www.w3.org/2000/svg">
<path fill-rule="evenodd" clip-rule="evenodd" d="M12.2219 8.91379C12.2219 9.72516 12.2493 10.2289 12.916 10.8694C14.1764 12.0808 16.1826 11.7386 16.9483 10.3005C17.445 9.36849 17.2562 8.21545 16.4901 7.47688C15.7144 6.7284 14.5879 6.57485 13.6001 7.01652C13.149 7.21795 12.7101 7.64885 12.4845 8.07352C12.3844 8.26191 12.2219 8.66278 12.2219 8.91379ZM9.78399 14.1092C10.7474 14.1092 10.904 14.6093 12.1241 15.0784C16.2866 16.6782 18.5263 14.1092 19.4227 14.1092C19.9376 14.1092 20.1156 14.1313 20.4534 14.537C21.2615 15.5085 20.3873 16.2278 19.5931 16.7343C19.3434 16.8935 19.0987 17.0493 18.8062 17.1785C17.9928 17.538 16.6866 17.9372 15.7373 17.9372C15.8072 18.1902 17.6521 19.8659 17.8777 20.0835C18.7054 20.8906 21.3287 23.0596 18.8003 23.684C18.0892 23.8596 17.6213 23.2817 17.2538 22.9273C17.087 22.7664 14.9613 20.6167 14.7733 20.6167C14.365 20.6167 12.4041 22.7106 12.0093 23.0913C11.3008 23.7746 10.2551 24.0882 9.75726 22.9941C9.33928 22.0757 9.88709 21.7473 10.4784 21.1773L13.1716 18.5251C13.354 18.3491 13.626 18.1899 13.6962 17.9372C12.5301 17.9372 10.8141 17.3862 9.87417 16.7564C9.38628 16.4295 8.79471 16.0524 8.67839 15.4444C8.56883 14.873 9.1372 14.1092 9.78399 14.1092ZM14.6599 14.1092C10.3409 14.1092 7.83774 8.89991 11.1304 5.72835C12.6499 4.2651 14.8335 3.85658 16.8144 4.70308C18.6623 5.49236 19.7147 7.28566 19.8184 9.19199C19.8874 10.447 19.1766 11.7669 18.3189 12.6616C17.4574 13.5605 15.9646 14.1092 14.6599 14.1092ZM0.20166 13.6169C0.20166 21.2683 6.13294 27.9995 14.3198 27.9995C25.1211 27.9995 32.5363 17.7358 27.9088 8.11148C25.6551 3.42284 20.5254 0 15.1137 0C7.18478 0 0.20166 5.7292 0.20166 13.6169Z" fill="white"/>
</svg>
