<svg width="37" height="22" viewBox="0 0 37 22" fill="none" xmlns="http://www.w3.org/2000/svg">
<path fill-rule="evenodd" clip-rule="evenodd" d="M12.4607 1.62445C12.973 1.66947 13.3797 1.84861 13.7289 2.08684C15.1371 3.05103 15.0111 10.2562 13.8151 10.7167C13.0397 11.015 12.2735 10.0601 11.8696 9.53397C10.2085 7.37299 8.8291 2.66554 7.79059 1.5269C7.14487 0.819706 6.64183 1.02417 5.49492 1.02324C4.93166 1.02324 1.58081 0.97634 1.1843 1.05044C0.571939 1.16392 0.376465 1.39465 0.376465 2.04276C0.595099 3.67194 4.03211 9.93446 4.91221 11.4773C6.34538 13.9891 8.77908 17.647 11.1526 19.3043C14.7183 21.7936 15.7763 21.9024 20.0666 21.9024C21.8786 21.9024 21.6211 20.7169 21.7054 19.5782C21.849 17.6198 22.7541 15.8106 24.6088 17.7042C25.6362 18.8851 27.237 20.9954 28.5257 21.6023C29.9449 22.2691 31.5412 21.8939 32.9326 21.9024C34.3343 21.9099 36.7708 22.1734 36.7708 20.7759C36.7708 18.9939 33.4811 15.744 32.3471 14.6353C31.7283 14.0304 30.8714 13.3523 30.8714 12.3646C30.8714 11.482 32.8233 9.01717 33.5218 8.02954C34.4168 6.7624 38.8608 1.02324 35.5627 1.02324C34.8151 1.02324 29.277 0.970712 28.7665 1.12828C28.1282 1.32525 26.9804 4.73367 26.5052 5.57311C25.6306 7.11694 25.0785 8.26683 23.9362 9.69342C22.2399 11.8131 21.6294 10.3153 21.6303 7.93293L21.7628 2.23504C21.6174 0.752175 21.1607 0.407019 19.9971 0.195986C18.8409 -0.0150472 12.5051 -0.481196 12.4607 1.62445Z" fill="white"/>
</svg>
